HIERARCHY
ROOT Hips
{
	OFFSET 0.00000 0.00000 0.00000
	CHANNELS 6 Xposition Yposition Zposition Zrotation Yrotation Xrotation 
	JOINT LHipJoint
	{
		OFFSET 0 0 0
		CHANNELS 3 Zrotation Yrotation Xrotation
		JOINT LeftHip
		{
			OFFSET 1.84395 -1.68683 0.74144
			CHANNELS 3 Zrotation Yrotation Xrotation
			JOINT LeftKnee
			{
				OFFSET 2.27037 -6.23779 0.00000
				CHANNELS 3 Zrotation Yrotation Xrotation
				JOINT LeftAnkle
				{
					OFFSET 2.56918 -7.05877 0.00000
					CHANNELS 3 Zrotation Yrotation Xrotation
					JOINT LeftToe
					{
						OFFSET 0.22276 -0.61202 1.71784
						CHANNELS 3 Zrotation Yrotation Xrotation
						End Site
						{
							OFFSET 0.00000 -0.00000 0.91613
						}
					}
				}
			}
		}
	}
	JOINT RHipJoint
	{
		OFFSET 0 0 0
		CHANNELS 3 Zrotation Yrotation Xrotation
		JOINT RightHip
		{
			OFFSET -1.76833 -1.68684 0.74144
			CHANNELS 3 Zrotation Yrotation Xrotation
			JOINT RightKnee
			{
				OFFSET -2.49360 -6.85110 0.00000
				CHANNELS 3 Zrotation Yrotation Xrotation
				JOINT RightAnkle
				{
					OFFSET -2.55538 -7.02085 0.00000
					CHANNELS 3 Zrotation Yrotation Xrotation
					JOINT RightToe
					{
						OFFSET -0.21516 -0.59115 1.68050
						CHANNELS 3 Zrotation Yrotation Xrotation
						End Site
						{
							OFFSET -0.00000 -0.00000 0.89604
						}
					}
				}
			}
		}
	}
	JOINT lowerback
	{
		OFFSET 0 0 0
		CHANNELS 3 Zrotation Yrotation Xrotation
		JOINT Chest
		{
			OFFSET 0.06382 1.72312 -0.19613
			CHANNELS 3 Zrotation Yrotation Xrotation
			JOINT Chest2
			{
				OFFSET -0.00055 1.73507 0.23859
				CHANNELS 3 Zrotation Yrotation Xrotation
				JOINT lowerneck
				{
					OFFSET 0 0 0
					CHANNELS 3 Zrotation Yrotation Xrotation
					JOINT Neck
					{
						OFFSET 0.03638 1.65562 0.09633
						CHANNELS 3 Zrotation Yrotation Xrotation
						JOINT Head
						{
							OFFSET 0.06388 1.62807 -0.32386
							CHANNELS 3 Zrotation Yrotation Xrotation
							End Site
							{
								OFFSET 0.00995 1.67644 -0.12021
							}
						}
					}
				}
				JOINT LeftCollar
				{
					OFFSET 0 0 0
					CHANNELS 3 Zrotation Yrotation Xrotation
					JOINT LeftShoulder
					{
						OFFSET 3.09648 1.42991 0.28122
CHANNELS 3 Zrotation Xrotation Yrotation
						JOINT LeftElbow
						{
OFFSET 0 -5.118780 -0.000000
CHANNELS 3 Zrotation Xrotation Yrotation
							JOINT LeftWrist
							{
OFFSET 0 -3.599710 0.000000
CHANNELS 3 Zrotation Xrotation Yrotation
								JOINT lhand
								{
									OFFSET 0 0 0
CHANNELS 3 Zrotation Xrotation Yrotation
									JOINT LFingers
									{
OFFSET 0 -0.628770 0.000000
CHANNELS 3 Zrotation Xrotation Yrotation
										End Site
										{
OFFSET 0 -0.506930 0.000000
										}
									}
								}
								JOINT LThumb
								{
OFFSET 0 0.000000 0.000000
CHANNELS 3 Zrotation Xrotation Yrotation
									End Site
									{
OFFSET 0 -0.514670 0.514670
									}
								}
							}
						}
					}
				}
				JOINT RightCollar
				{
					OFFSET 0 0 0
					CHANNELS 3 Zrotation Yrotation Xrotation
					JOINT RightShoulder
					{
						OFFSET -3.33565 1.14597 0.05047
CHANNELS 3 Zrotation Xrotation Yrotation
						JOINT RightElbow
						{
OFFSET 0 -5.490200 0.000000
CHANNELS 3 Zrotation Xrotation Yrotation
							JOINT RightWrist
							{
OFFSET 0 -3.206590 -0.000000
CHANNELS 3 Zrotation Xrotation Yrotation
								JOINT rhand
								{
									OFFSET 0 0 0
CHANNELS 3 Zrotation Xrotation Yrotation
									JOINT RFingers
									{
OFFSET 0 -0.691880 0.000000
CHANNELS 3 Zrotation Xrotation Yrotation
										End Site
										{
OFFSET 0 -0.557810 0.000000
										}
									}
								}
								JOINT RThumb
								{
OFFSET 0 0.000000 0.000000
CHANNELS 3 Zrotation Xrotation Yrotation
									End Site
									{
OFFSET 0 -0.566330 0.566330
									}
								}
							}
						}
					}
				}
			}
		}
	}
}
MOTION
Frames: 12
Frame Time: 0.008333333333333333
0.852050 17.526708 9.415511 -11.171654 -6.462560 12.564959 0.000000 0.000000 0.000000 -19.027430 -42.400567 25.623227 0.062819 -1.617136 -4.448553 -2.122614 43.012781 -53.595287 1.255999 7.104877 20.026457 0.000000 0.000000 0.000000 27.395391 26.309126 2.231952 -0.010807 -0.671410 1.845076 0.398664 -15.071429 -16.416120 -0.021312 0.942973 -2.591953 8.211685 4.988490 2.317698 0.026652 7.288886 -7.308701 -5.137581 3.051363 -8.045784 -0.135775 -3.181410 -15.911979 6.842104 -6.554433 27.130600 1.592187 -2.090332 11.782207 0.000000 0.000000 0.000000 1.216123 13.704125 -30.182589 128.167152 -53.708542 92.355267 39.911314 -22.710239 21.420736 0.000000 0.000000 0.000000 -7.125000 0.000000 0.000000 6.895543 3.061104 6.565934 0.000000 0.000000 0.000000 -14.447760 -47.828839 79.518684 -62.054882 -56.832847 -36.056141 29.417180 -7.526642 36.492071 0.000000 0.000000 0.000000 7.125000 0.000000 0.000000 65.407707 54.980011 -23.089567
0.808737 17.538435 9.422568 -10.285915 -5.916838 12.643200 0.000000 0.000000 0.000000 -19.858825 -43.301383 25.590694 0.057080 -1.541116 -4.239155 -2.119837 43.123330 -53.775145 1.214595 6.991002 19.688661 0.000000 0.000000 0.000000 26.417508 26.562837 2.034664 -0.011676 -0.697459 1.916661 0.443050 -15.695986 -16.955961 -0.009284 0.620037 -1.703802 6.364506 5.039997 1.718304 -0.108381 7.180800 -7.372376 -4.211159 3.122713 -7.952635 -0.479098 -3.439879 -16.102768 7.476778 -7.027918 27.187285 1.814234 -2.249239 11.909200 0.000000 0.000000 0.000000 2.096846 13.578693 -31.131101 127.903709 -53.806701 92.142819 40.866220 -24.229602 21.495888 0.000000 0.000000 0.000000 -7.125000 0.000000 0.000000 7.452936 2.672058 7.158976 0.000000 0.000000 0.000000 -11.235088 -43.015999 75.967940 -61.177288 -56.615506 -35.322388 28.128093 -22.227247 38.816788 0.000000 0.000000 0.000000 7.125000 0.000000 0.000000 67.271900 56.546211 -27.149381
0.787254 17.542580 9.437779 -9.846644 -4.988051 12.505937 0.000000 0.000000 0.000000 -20.046243 -43.563035 25.332798 0.052327 -1.476654 -4.061282 -2.632317 43.130041 -52.399331 1.064584 6.559640 18.417026 0.000000 0.000000 0.000000 26.105538 26.176946 2.159282 -0.010953 -0.675243 1.855714 0.507070 -16.375863 -17.353121 -0.015320 0.799127 -2.196257 5.472013 4.961112 1.508690 -0.136403 7.009948 -7.471211 -3.731437 3.092503 -8.046970 -1.073620 -3.821734 -15.758511 8.191691 -7.554996 26.581528 2.097290 -2.486606 11.689866 0.000000 0.000000 0.000000 3.199002 13.647753 -32.196051 127.751223 -53.863192 92.019649 41.096731 -25.615654 21.157241 0.000000 0.000000 0.000000 -7.125000 0.000000 0.000000 7.662761 3.006567 7.317068 0.000000 0.000000 0.000000 -8.998713 -36.551349 71.996471 -66.484999 -57.802139 -39.785899 21.066542 -31.852577 42.878933 0.000000 0.000000 0.000000 7.125000 0.000000 0.000000 67.306457 60.411640 -33.536845
0.778749 17.540804 9.454228 -9.815875 -3.800710 12.388068 0.000000 0.000000 0.000000 -19.512486 -43.585283 24.845926 0.053635 -1.494556 -4.110610 -3.419023 43.180312 -50.202900 0.832129 5.818804 16.259703 0.000000 0.000000 0.000000 26.372213 26.082384 2.593229 -0.008681 -0.602877 1.656647 0.603911 -17.483098 -18.212203 -0.006724 0.529174 -1.454127 5.378530 4.705144 1.456271 -0.001993 6.673981 -7.607509 -3.523451 2.929221 -8.224511 -1.998262 -4.112267 -15.755143 8.948482 -7.913268 26.346933 2.478297 -2.654945 11.696682 0.000000 0.000000 0.000000 3.721571 14.237290 -32.386209 127.985431 -53.776389 92.208727 40.902309 -27.736887 20.291981 0.000000 0.000000 0.000000 -7.125000 0.000000 0.000000 7.726638 4.114310 7.219553 0.000000 0.000000 0.000000 -6.694812 -29.323305 68.442783 -74.084318 -59.019019 -46.262184 16.222961 -36.682959 44.987658 0.000000 0.000000 0.000000 7.125000 0.000000 0.000000 66.778212 62.797766 -36.670569
0.769952 17.544897 9.454645 -9.774471 -2.968883 12.212588 0.000000 0.000000 0.000000 -18.985828 -43.470304 24.280760 0.052284 -1.476278 -4.060245 -3.711090 42.826877 -48.627486 0.738259 5.488941 15.308475 0.000000 0.000000 0.000000 26.451209 25.847520 2.639743 -0.010720 -0.666982 1.832901 0.641374 -17.943716 -18.641495 -0.011259 0.679162 -1.866528 5.300451 4.423457 1.631213 0.213644 6.318406 -7.589769 -3.248593 2.761426 -8.373161 -2.250595 -4.203628 -16.016796 8.590387 -7.813914 25.795077 2.388638 -2.691182 11.519323 0.000000 0.000000 0.000000 3.082549 14.987929 -31.232493 128.058858 -53.748988 92.267988 40.592543 -28.280048 19.296829 0.000000 0.000000 0.000000 -7.125000 0.000000 0.000000 7.740745 5.416491 7.041414 0.000000 0.000000 0.000000 -5.207624 -23.933807 66.972638 -77.195343 -59.371282 -48.934296 17.339716 -41.740370 45.035034 0.000000 0.000000 0.000000 7.125000 0.000000 0.000000 67.722026 62.503908 -37.011947
0.772253 17.537947 9.447156 -9.720008 -2.950244 12.164872 0.000000 0.000000 0.000000 -18.883794 -43.169785 24.022094 0.051753 -1.468326 -4.038435 -3.843732 42.760366 -48.062410 0.701182 5.352292 14.916136 0.000000 0.000000 0.000000 26.398295 25.684848 2.533540 -0.012256 -0.716148 1.968098 0.619897 -17.769377 -18.577650 -0.011979 0.705827 -1.939739 5.494289 4.373718 1.545551 0.273921 6.255252 -7.473111 -3.272418 2.728365 -8.188759 -2.389326 -4.134568 -16.348972 8.594434 -7.641422 25.428135 2.428691 -2.628784 11.439093 0.000000 0.000000 0.000000 2.092367 15.700874 -29.800375 128.116351 -53.727485 92.314286 41.321264 -29.659511 18.517508 0.000000 0.000000 0.000000 -7.125000 0.000000 0.000000 8.344960 6.157222 7.483507 0.000000 0.000000 0.000000 -3.491243 -22.223910 67.282071 -73.310437 -58.919975 -45.598927 17.439147 -45.476392 48.874284 0.000000 0.000000 0.000000 7.125000 0.000000 0.000000 74.435854 64.152928 -45.256545
0.777175 17.536287 9.429667 -9.639009 -3.700647 12.215885 0.000000 0.000000 0.000000 -19.232284 -43.074206 24.234618 0.052317 -1.475617 -4.058463 -3.759795 43.011592 -48.824305 0.727061 5.447958 15.190804 0.000000 0.000000 0.000000 26.205270 26.050027 2.449158 -0.013700 -0.755740 2.076906 0.575323 -17.387015 -18.413854 -0.009622 0.632854 -1.739037 5.620551 4.681201 1.517583 0.172889 6.665804 -7.461103 -3.469036 2.922421 -8.097472 -2.360397 -4.164159 -16.597948 8.664156 -7.679004 25.080710 2.434248 -2.637998 11.362171 0.000000 0.000000 0.000000 1.290958 15.926019 -29.033686 127.925107 -53.798806 92.160047 41.899356 -30.681034 17.716483 0.000000 0.000000 0.000000 -7.125000 0.000000 0.000000 8.863447 6.980757 7.816826 0.000000 0.000000 0.000000 -2.468305 -22.676217 67.674487 -67.759937 -58.044771 -40.866094 17.575719 -51.321163 52.550083 0.000000 0.000000 0.000000 7.125000 0.000000 0.000000 81.612654 65.362860 -53.869706
0.784320 17.536660 9.411781 -9.524295 -4.337171 12.354930 0.000000 0.000000 0.000000 -19.586951 -43.146952 24.402616 0.053000 -1.485958 -4.087133 -3.344113 42.997944 -50.100867 0.856155 5.900882 16.497149 0.000000 0.000000 0.000000 25.948492 26.452385 2.433337 -0.011441 -0.691476 1.900265 0.568614 -17.202896 -18.135835 -0.009601 0.633096 -1.739684 5.657401 5.077032 1.659874 0.029533 7.206582 -7.571193 -3.693324 3.174082 -8.228554 -2.316500 -4.371761 -16.938416 8.797678 -7.990333 24.692301 2.416528 -2.760069 11.310317 0.000000 0.000000 0.000000 1.081011 15.915153 -29.189125 127.766558 -53.857521 92.032038 41.627549 -30.718480 17.665528 0.000000 0.000000 0.000000 -7.125000 0.000000 0.000000 8.705498 7.122009 7.650154 0.000000 0.000000 0.000000 -2.678436 -23.615417 67.312334 -68.780823 -58.226999 -41.733151 17.376504 -49.946335 53.420434 0.000000 0.000000 0.000000 7.125000 0.000000 0.000000 83.269249 65.662955 -55.969122
0.787000 17.541046 9.396462 -9.632388 -4.191541 12.618773 0.000000 0.000000 0.000000 -19.342086 -43.665347 24.275108 0.053277 -1.489314 -4.096387 -3.285478 43.110473 -50.481404 0.890375 6.014393 16.826222 0.000000 0.000000 0.000000 25.905716 26.684118 2.180637 -0.009900 -0.643169 1.767397 0.584216 -17.318303 -18.150670 -0.006032 0.502622 -1.381074 5.795113 5.107120 1.610387 0.128940 7.266346 -7.695316 -3.670533 3.192065 -8.329046 -2.513349 -4.473720 -16.996404 9.172770 -8.126711 24.117526 2.556119 -2.811853 11.143495 0.000000 0.000000 0.000000 0.894730 16.037785 -29.183430 128.068851 -53.745241 92.275971 41.505310 -31.074499 18.037373 0.000000 0.000000 0.000000 -7.125000 0.000000 0.000000 8.555223 6.696291 7.586402 0.000000 0.000000 0.000000 -3.513867 -25.246252 66.239219 -75.534220 -59.188590 -47.506903 18.573126 -51.060291 53.203978 0.000000 0.000000 0.000000 7.125000 0.000000 0.000000 83.508493 65.226145 -55.603381
0.789798 17.541128 9.383909 -9.565926 -3.419501 12.585535 0.000000 0.000000 0.000000 -19.185618 -44.029609 24.047229 0.052052 -1.471932 -4.048262 -3.741102 43.316246 -49.466011 0.792878 5.683622 15.869191 0.000000 0.000000 0.000000 25.943074 26.918470 2.370007 -0.009300 -0.622270 1.709963 0.652344 -18.068389 -18.750790 -0.000528 0.140715 -0.386564 5.936059 4.816393 1.714843 0.202088 6.904662 -7.815073 -3.666443 2.994621 -8.552896 -2.432704 -4.524058 -16.788013 9.170977 -8.190238 23.815740 2.530481 -2.850645 10.990784 0.000000 0.000000 0.000000 1.100508 16.192619 -29.109227 128.049534 -53.752491 92.260425 41.715543 -30.970556 17.513500 0.000000 0.000000 0.000000 -7.125000 0.000000 0.000000 8.790549 7.286044 7.698029 0.000000 0.000000 0.000000 -4.849312 -26.840915 64.664647 -83.904187 -59.853380 -54.723690 17.228989 -48.016084 53.156720 0.000000 0.000000 0.000000 7.125000 0.000000 0.000000 82.643052 65.640767 -55.299845
0.786728 17.547887 9.383787 -9.632380 -2.422720 12.333792 0.000000 0.000000 0.000000 -18.528861 -43.679542 23.428378 0.052016 -1.471603 -4.047576 -4.325391 43.142815 -47.200145 0.619910 5.037654 14.016156 0.000000 0.000000 0.000000 26.242751 26.531584 2.645311 -0.008840 -0.608387 1.671769 0.702938 -18.586436 -19.147172 -0.000816 0.185502 -0.509637 6.013064 4.403767 1.788749 0.406143 6.388734 -8.040781 -3.480035 2.723559 -8.915585 -2.347367 -4.556222 -16.604907 9.063927 -8.282003 24.282924 2.473261 -2.887101 11.126589 0.000000 0.000000 0.000000 1.241945 16.355590 -28.984643 127.503718 -53.953973 91.819647 41.294044 -30.721494 17.237233 0.000000 0.000000 0.000000 -7.125000 0.000000 0.000000 8.583371 7.747415 7.434084 0.000000 0.000000 0.000000 -6.009667 -26.199706 62.367894 -90.398196 -59.997980 -60.344825 17.793935 -47.738174 51.973664 0.000000 0.000000 0.000000 7.125000 0.000000 0.000000 80.587244 65.122188 -52.513182
0.788678 17.547722 9.406212 -9.630283 -1.841791 11.953613 0.000000 0.000000 0.000000 -18.605641 -43.442559 23.604485 0.051061 -1.458237 -4.010603 -4.444153 42.825507 -46.110057 0.553820 4.766885 13.244886 0.000000 0.000000 0.000000 26.458935 26.011024 3.036674 -0.009177 -0.619500 1.702329 0.695384 -18.696429 -19.474716 -0.000269 0.110296 -0.303009 6.070604 4.125998 1.454038 0.502475 6.004673 -8.156122 -3.358666 2.534456 -8.888896 -2.391837 -4.563239 -16.326047 9.325659 -8.392879 24.635821 2.570217 -2.906467 11.228795 0.000000 0.000000 0.000000 1.224255 16.487073 -28.763832 127.085745 -54.105317 91.481349 41.536390 -31.266845 17.802372 0.000000 0.000000 0.000000 -7.125000 0.000000 0.000000 8.621696 6.978393 7.599008 0.000000 0.000000 0.000000 -7.341902 -25.232817 62.860110 -88.066568 -59.981448 -58.325767 20.519769 -48.201209 53.134794 0.000000 0.000000 0.000000 7.125000 0.000000 0.000000 84.490538 64.593467 -55.722103
